<svg width="40" height="40" viewBox="0 0 40 40" fill="none" xmlns="http://www.w3.org/2000/svg">
<rect x="2" y="4" width="36" height="31" fill="url(#paint0_linear_2_23)"/>
<path d="M11.6953 1.375C11.6016 1.375 11.5 1.375 11.4063 1.38281C8.75784 1.44531 5.50627 2.21875 1.46721 4.01563V33.0312C6.2094 30.7812 9.7969 30.1328 12.7266 30.4453C15.3438 30.7188 17.3906 31.7422 19.2578 32.8828H20.6875C22.5547 31.7422 24.6016 30.7188 27.2188 30.4453C30.1485 30.1328 33.7422 30.7812 38.4844 33.0312V4.01563C34.4453 2.21875 31.1953 1.44531 28.5469 1.38281C28.4453 1.38281 28.3516 1.375 28.2578 1.375C27.9688 1.375 27.6797 1.38281 27.4063 1.39844C24.6094 1.55469 22.5078 2.51563 20.6875 3.89844H19.2578C17.4453 2.51563 15.336 1.55469 12.5391 1.39844C12.2656 1.38281 11.9844 1.375 11.6953 1.375ZM19.9922 5.375C20.3438 5.375 20.7266 5.46094 20.9922 5.60156L30.0469 10.8438C30.625 11.1641 30.625 11.6953 30.0469 12.0312L20.9922 17.2578C20.4297 17.5938 19.5469 17.5938 18.9844 17.2578L9.90627 12.0312C9.33596 11.6953 9.33596 11.1641 9.90627 10.8438L18.9844 5.60156C19.25 5.46094 19.6016 5.375 19.9922 5.375ZM13.0391 10.2656C11.3516 10.2344 10.4531 11.4375 11.6172 12.1641C12.3672 12.5391 13.4688 12.5078 14.1719 12.1016C14.8594 11.6875 14.9141 11.0312 14.2891 10.5859C13.9531 10.3906 13.5078 10.2734 13.0391 10.2656ZM26.9922 10.2734C25.3672 10.3047 24.5469 11.4844 25.7188 12.1875C26.4688 12.5703 27.586 12.5469 28.2969 12.1328C28.9922 11.7188 29.0391 11.0469 28.3906 10.6016C28.0625 10.4141 27.6172 10.2891 27.1485 10.2734H26.9922ZM20.0391 10.2734C19.5235 10.2656 19.0235 10.3906 18.6563 10.6016C17.8594 11.0391 17.8438 11.7812 18.6094 12.2344C19.3828 12.6875 20.625 12.6719 21.3516 12.1875C22.5235 11.4844 21.711 10.2891 20.0391 10.2734ZM9.02346 13.4766C9.14065 13.4844 9.28909 13.5156 9.46096 13.6016L18.1719 18.6406C18.7344 18.9609 19.1797 19.75 19.1797 20.3984V29.75C19.1797 30.3984 18.7344 30.6641 18.1719 30.3438L9.46877 25.3125C8.89065 24.9766 8.43752 24.2031 8.43752 23.5469V14.1953C8.43752 13.7109 8.6719 13.4766 9.02346 13.4766ZM31 13.4766C31.3281 13.4766 31.5625 13.7109 31.5625 14.1953V23.5469C31.5625 24.2031 31.0938 24.9766 30.5469 25.3125L21.836 30.3438C21.2735 30.6641 20.8281 30.3984 20.8281 29.75V20.3984C20.8281 19.75 21.2735 18.9609 21.836 18.6406L30.5469 13.6016C30.711 13.5156 30.875 13.4844 31 13.4766ZM16.5469 18.5938H16.461C16.0469 18.625 15.7969 18.9688 15.7969 19.5C15.75 20.3125 16.3594 21.3828 17.1172 21.8281C17.8828 22.2656 18.4922 21.9141 18.461 21.0547C18.4766 19.9453 17.4219 18.625 16.5469 18.5938ZM26.7735 20.2969C25.8985 20.3047 24.836 21.6406 24.8438 22.75C24.8516 23.5625 25.4453 23.875 26.1875 23.4453C26.9219 23.0156 27.5156 22.0156 27.5235 21.1953C27.5235 20.6719 27.2656 20.3281 26.8594 20.2969H26.7735ZM9.82815 22.0547C9.40627 22.0781 9.14846 22.4219 9.14846 22.9609C9.1094 23.7812 9.71877 24.8438 10.4766 25.2891C11.2422 25.7188 11.8516 25.3672 11.8203 24.5C11.8203 23.3672 10.7188 22.0156 9.82815 22.0547ZM11.2031 31.8281C8.70315 31.8516 5.59143 32.5937 1.46643 34.6406V37.9609C6.20862 35.7109 9.7969 35.0625 12.7266 35.375C14.1797 35.5312 15.4531 35.9141 16.6172 36.4141C16.25 36.8906 15.8906 37.4531 15.5313 38.1094H24.6875C24.2188 37.4688 23.7656 36.9062 23.3047 36.4219C24.4766 35.9141 25.7578 35.5312 27.2188 35.375C30.1485 35.0625 33.7422 35.7109 38.4844 37.9609V34.6406C34.336 32.5859 31.211 31.8359 28.7031 31.8281H28.461C28.086 31.8359 27.7266 31.8594 27.375 31.8984C24.7188 32.1797 22.7188 33.3047 20.6875 34.5859V34.6094C20.1797 34.4531 19.6719 34.4219 19.1719 34.5312C17.1797 33.2734 15.1875 32.1719 12.5781 31.8984C12.1406 31.8516 11.6797 31.8281 11.2031 31.8281Z" fill="black"/>
<defs>
<linearGradient id="paint0_linear_2_23" x1="20" y1="4" x2="20" y2="35" gradientUnits="userSpaceOnUse">
<stop stop-color="#6A1717"/>
<stop offset="1" stop-color="#120000"/>
</linearGradient>
</defs>
</svg>
